<svg width="64" height="64" viewBox="0 0 64 64" fill="none" xmlns="http://www.w3.org/2000/svg">
<path d="M10.7021 9.66602L9.70209 9.66601L9.70209 11.666L10.7021 11.666L10.7021 9.66602ZM42.6671 11.666L43.6671 11.666V9.66604L42.6671 9.66604V11.666ZM53.3338 53.3327V54.3327H54.3338V53.3327H53.3338ZM10.6671 52.3327H9.66711V54.3327H10.6671V52.3327ZM9.66699 53.2982L9.66699 54.2982L11.667 54.2982L11.667 53.2982L9.66699 53.2982ZM11.6672 10.6661L11.6672 9.66611L9.66716 9.6661L9.66715 10.6661L11.6672 10.6661ZM54.3338 34.666V33.666H52.3338V34.666H54.3338ZM31 38.094V39.094H31.3786L31.6622 38.8433L31 38.094ZM56.6627 16.7487L57.412 16.0865L56.0876 14.5878L55.3383 15.2501L56.6627 16.7487ZM30.275 38.094L29.5654 38.7986L29.8587 39.094H30.275V38.094ZM22.0434 28.3856L21.3388 27.6761L19.9196 29.0854L20.6243 29.7949L22.0434 28.3856ZM10.7021 11.666L42.6671 11.666V9.66604L10.7021 9.66602L10.7021 11.666ZM53.3338 52.3327H10.6671V54.3327H53.3338V52.3327ZM11.667 53.2982L11.6672 10.6661L9.66715 10.6661L9.66699 53.2982L11.667 53.2982ZM54.3338 53.3327V34.666H52.3338V53.3327H54.3338ZM31.6622 38.8433L56.6627 16.7487L55.3383 15.2501L30.3378 37.3447L31.6622 38.8433ZM30.9845 37.3893L22.0434 28.3856L20.6243 29.7949L29.5654 38.7986L30.9845 37.3893ZM31 37.094H30.275V39.094H31V37.094Z" fill="#E5E6E6"/>
</svg>
