<svg width="290" height="80" viewBox="0 0 290 80" fill="none" xmlns="http://www.w3.org/2000/svg">
<rect x="1.53125" y="1.9126" width="9.564" height="54.3235" fill="#E5E6E6"/>
<path fill-rule="evenodd" clip-rule="evenodd" d="M23.3359 1.9126H32.8999V16.5788L58.914 5.59008V1.9126H68.478V56.2361H58.914V15.9724L32.8999 26.9611V56.2361H23.3359V1.9126Z" fill="#E5E6E6"/>
<path fill-rule="evenodd" clip-rule="evenodd" d="M80.7188 1.53027H90.2828V16.1955L116.297 5.20669V1.53027H125.861V55.8538H116.297V15.589L90.2828 26.5778V55.8538H80.7188V1.53027Z" fill="#964301"/>
<path fill-rule="evenodd" clip-rule="evenodd" d="M163.927 57.3845C179.245 57.3845 191.663 44.7099 191.663 29.0751C191.663 13.4402 179.245 0.765625 163.927 0.765625C148.609 0.765625 136.191 13.4402 136.191 29.0751C136.191 44.7099 148.609 57.3845 163.927 57.3845ZM163.926 47.438C173.75 47.438 181.715 39.2167 181.715 29.0751C181.715 18.9336 173.75 10.7122 163.926 10.7122C154.101 10.7122 146.137 18.9336 146.137 29.0751C146.137 39.2167 154.101 47.438 163.926 47.438Z" fill="#964301"/>
<path fill-rule="evenodd" clip-rule="evenodd" d="M203.655 0L194.719 3.40727L214.997 56.5926V56.6186H215.007L215.014 56.6369L215.062 56.6186H224.473L224.521 56.6369L224.528 56.6186H224.561V56.5322L244.816 3.40727L235.88 0L219.768 42.2589L203.655 0Z" fill="#964301"/>
<path fill-rule="evenodd" clip-rule="evenodd" d="M238.719 54.3781L247.655 57.7854L255.83 36.344H271.706L279.881 57.7854L288.817 54.3781L268.56 1.24807V1.1663H268.529L268.522 1.14844L268.475 1.1663H259.061L259.014 1.14844L259.007 1.1663H258.996V1.19535L238.719 54.3781ZM268.789 28.6927L263.768 15.5252L258.748 28.6927H268.789Z" fill="#964301"/>
<path d="M0.65605 72.2249C0.65605 71.1843 0.890687 70.2509 1.35996 69.4245C1.82923 68.588 2.46684 67.9351 3.27276 67.4658C4.08889 66.9966 4.99173 66.7619 5.98129 66.7619C7.14427 66.7619 8.15933 67.0425 9.02647 67.6036C9.8936 68.1647 10.5261 68.9604 10.924 69.9907H9.256C8.96016 69.348 8.53169 68.8533 7.9706 68.5064C7.41971 68.1596 6.75661 67.9861 5.98129 67.9861C5.23657 67.9861 4.56837 68.1596 3.97667 68.5064C3.38498 68.8533 2.92081 69.348 2.58415 69.9907C2.2475 70.6232 2.07917 71.368 2.07917 72.2249C2.07917 73.0716 2.2475 73.8163 2.58415 74.459C2.92081 75.0915 3.38498 75.5812 3.97667 75.9281C4.56837 76.2749 5.23657 76.4484 5.98129 76.4484C6.75661 76.4484 7.41971 76.28 7.9706 75.9434C8.53169 75.5965 8.96016 75.1017 9.256 74.459H10.924C10.5261 75.4792 9.8936 76.2698 9.02647 76.8309C8.15933 77.3818 7.14427 77.6572 5.98129 77.6572C4.99173 77.6572 4.08889 77.4277 3.27276 76.9686C2.46684 76.4994 1.82923 75.8516 1.35996 75.0252C0.890687 74.1989 0.65605 73.2655 0.65605 72.2249ZM17.9089 77.6725C16.9194 77.6725 16.0165 77.443 15.2004 76.9839C14.3843 76.5147 13.7365 75.8669 13.257 75.0405C12.7877 74.204 12.5531 73.2655 12.5531 72.2249C12.5531 71.1843 12.7877 70.2509 13.257 69.4245C13.7365 68.588 14.3843 67.9402 15.2004 67.4811C16.0165 67.0119 16.9194 66.7772 17.9089 66.7772C18.9087 66.7772 19.8166 67.0119 20.6327 67.4811C21.4489 67.9402 22.0916 68.5829 22.5608 69.4092C23.0301 70.2356 23.2648 71.1741 23.2648 72.2249C23.2648 73.2757 23.0301 74.2142 22.5608 75.0405C22.0916 75.8669 21.4489 76.5147 20.6327 76.9839C19.8166 77.443 18.9087 77.6725 17.9089 77.6725ZM17.9089 76.4637C18.6536 76.4637 19.3218 76.2902 19.9135 75.9434C20.5154 75.5965 20.9847 75.1017 21.3214 74.459C21.6682 73.8163 21.8416 73.0716 21.8416 72.2249C21.8416 71.368 21.6682 70.6232 21.3214 69.9907C20.9847 69.348 20.5205 68.8533 19.9288 68.5064C19.3371 68.1596 18.6638 67.9861 17.9089 67.9861C17.154 67.9861 16.4807 68.1596 15.889 68.5064C15.2973 68.8533 14.828 69.348 14.4812 69.9907C14.1445 70.6232 13.9762 71.368 13.9762 72.2249C13.9762 73.0716 14.1445 73.8163 14.4812 74.459C14.828 75.1017 15.2973 75.5965 15.889 75.9434C16.4909 76.2902 17.1642 76.4637 17.9089 76.4637ZM33.5653 77.5654H32.1728L26.5721 69.0726V77.5654H25.1796V66.8844H26.5721L32.1728 75.3619V66.8844H33.5653V77.5654ZM39.3974 77.6725C38.6935 77.6725 38.061 77.5501 37.4999 77.3053C36.9491 77.0502 36.5155 76.7034 36.1992 76.2647C35.883 75.8159 35.7198 75.3007 35.7096 74.7192H37.1939C37.2449 75.2191 37.4489 75.6424 37.806 75.9893C38.1732 76.3259 38.7037 76.4943 39.3974 76.4943C40.0605 76.4943 40.5808 76.331 40.9583 76.0046C41.3459 75.6679 41.5398 75.2395 41.5398 74.7192C41.5398 74.3111 41.4276 73.9796 41.2031 73.7245C40.9787 73.4695 40.6981 73.2757 40.3615 73.143C40.0248 73.0104 39.5709 72.8676 38.9996 72.7146C38.2957 72.5309 37.7295 72.3473 37.301 72.1637C36.8827 71.9801 36.5206 71.6944 36.2145 71.3067C35.9187 70.9089 35.7708 70.3784 35.7708 69.7153C35.7708 69.1338 35.9187 68.6186 36.2145 68.1698C36.5104 67.7209 36.9236 67.374 37.454 67.1292C37.9947 66.8844 38.6119 66.7619 39.3056 66.7619C40.3054 66.7619 41.1215 67.0119 41.754 67.5117C42.3967 68.0116 42.7589 68.6747 42.8405 69.5011H41.3102C41.2592 69.093 41.045 68.7359 40.6675 68.4299C40.2901 68.1136 39.7902 67.9555 39.1679 67.9555C38.5864 67.9555 38.112 68.1085 37.7448 68.4146C37.3775 68.7104 37.1939 69.1287 37.1939 69.6694C37.1939 70.057 37.301 70.3733 37.5152 70.6181C37.7397 70.863 38.01 71.0517 38.3263 71.1843C38.6527 71.3067 39.1067 71.4496 39.6882 71.6128C40.3921 71.8066 40.9583 72.0005 41.3868 72.1943C41.8152 72.3779 42.1825 72.6687 42.4885 73.0665C42.7946 73.4542 42.9476 73.9847 42.9476 74.658C42.9476 75.1783 42.8099 75.6679 42.5344 76.127C42.259 76.5861 41.8509 76.9584 41.3102 77.2441C40.7696 77.5297 40.132 77.6725 39.3974 77.6725ZM51.638 66.8997V68.032H48.7306V77.5654H47.3381V68.032H44.4153V66.8997H51.638ZM59.0446 77.5654L56.5045 73.2042H54.8212V77.5654H53.4287V66.8997H56.8717C57.6776 66.8997 58.356 67.0374 58.9069 67.3128C59.468 67.5883 59.8863 67.9606 60.1617 68.4299C60.4372 68.8992 60.5749 69.4348 60.5749 70.0366C60.5749 70.7712 60.3607 71.419 59.9322 71.9801C59.5139 72.5411 58.8814 72.9135 58.0347 73.0971L60.7126 77.5654H59.0446ZM54.8212 72.0872H56.8717C57.6266 72.0872 58.1928 71.9035 58.5703 71.5363C58.9477 71.1588 59.1365 70.6589 59.1365 70.0366C59.1365 69.4041 58.9477 68.9145 58.5703 68.5676C58.203 68.2208 57.6368 68.0473 56.8717 68.0473H54.8212V72.0872ZM64.1771 66.8997V73.648C64.1771 74.5968 64.4066 75.3007 64.8657 75.7597C65.3349 76.2188 65.9827 76.4484 66.8091 76.4484C67.6252 76.4484 68.2628 76.2188 68.7219 75.7597C69.1911 75.3007 69.4258 74.5968 69.4258 73.648V66.8997H70.8183V73.6327C70.8183 74.5203 70.6398 75.2701 70.2827 75.8822C69.9257 76.4841 69.4411 76.9329 68.829 77.2288C68.2271 77.5246 67.5487 77.6725 66.7938 77.6725C66.0388 77.6725 65.3553 77.5246 64.7432 77.2288C64.1413 76.9329 63.6619 76.4841 63.3048 75.8822C62.958 75.2701 62.7845 74.5203 62.7845 73.6327V66.8997H64.1771ZM72.6975 72.2249C72.6975 71.1843 72.9321 70.2509 73.4014 69.4245C73.8707 68.588 74.5083 67.9351 75.3142 67.4658C76.1303 66.9966 77.0332 66.7619 78.0227 66.7619C79.1857 66.7619 80.2008 67.0425 81.0679 67.6036C81.9351 68.1647 82.5676 68.9604 82.9654 69.9907H81.2975C81.0016 69.348 80.5731 68.8533 80.0121 68.5064C79.4612 68.1596 78.7981 67.9861 78.0227 67.9861C77.278 67.9861 76.6098 68.1596 76.0181 68.5064C75.4264 68.8533 74.9623 69.348 74.6256 69.9907C74.289 70.6232 74.1206 71.368 74.1206 72.2249C74.1206 73.0716 74.289 73.8163 74.6256 74.459C74.9623 75.0915 75.4264 75.5812 76.0181 75.9281C76.6098 76.2749 77.278 76.4484 78.0227 76.4484C78.7981 76.4484 79.4612 76.28 80.0121 75.9434C80.5731 75.5965 81.0016 75.1017 81.2975 74.459H82.9654C82.5676 75.4792 81.9351 76.2698 81.0679 76.8309C80.2008 77.3818 79.1857 77.6572 78.0227 77.6572C77.0332 77.6572 76.1303 77.4277 75.3142 76.9686C74.5083 76.4994 73.8707 75.8516 73.4014 75.0252C72.9321 74.1989 72.6975 73.2655 72.6975 72.2249ZM84.5945 72.2249C84.5945 71.1843 84.8292 70.2509 85.2984 69.4245C85.7677 68.588 86.4053 67.9351 87.2112 67.4658C88.0274 66.9966 88.9302 66.7619 89.9198 66.7619C91.0827 66.7619 92.0978 67.0425 92.9649 67.6036C93.8321 68.1647 94.4646 68.9604 94.8624 69.9907H93.1945C92.8986 69.348 92.4702 68.8533 91.9091 68.5064C91.3582 68.1596 90.6951 67.9861 89.9198 67.9861C89.175 67.9861 88.5068 68.1596 87.9151 68.5064C87.3235 68.8533 86.8593 69.348 86.5226 69.9907C86.186 70.6232 86.0177 71.368 86.0177 72.2249C86.0177 73.0716 86.186 73.8163 86.5226 74.459C86.8593 75.0915 87.3235 75.5812 87.9151 75.9281C88.5068 76.2749 89.175 76.4484 89.9198 76.4484C90.6951 76.4484 91.3582 76.28 91.9091 75.9434C92.4702 75.5965 92.8986 75.1017 93.1945 74.459H94.8624C94.4646 75.4792 93.8321 76.2698 92.9649 76.8309C92.0978 77.3818 91.0827 77.6572 89.9198 77.6572C88.9302 77.6572 88.0274 77.4277 87.2112 76.9686C86.4053 76.4994 85.7677 75.8516 85.2984 75.0252C84.8292 74.1989 84.5945 73.2655 84.5945 72.2249ZM98.4044 66.8997V77.5654H97.0118V66.8997H98.4044ZM105.69 77.6725C104.7 77.6725 103.797 77.443 102.981 76.9839C102.165 76.5147 101.517 75.8669 101.038 75.0405C100.569 74.204 100.334 73.2655 100.334 72.2249C100.334 71.1843 100.569 70.2509 101.038 69.4245C101.517 68.588 102.165 67.9402 102.981 67.4811C103.797 67.0119 104.7 66.7772 105.69 66.7772C106.689 66.7772 107.597 67.0119 108.414 67.4811C109.23 67.9402 109.872 68.5829 110.342 69.4092C110.811 70.2356 111.046 71.1741 111.046 72.2249C111.046 73.2757 110.811 74.2142 110.342 75.0405C109.872 75.8669 109.23 76.5147 108.414 76.9839C107.597 77.443 106.689 77.6725 105.69 77.6725ZM105.69 76.4637C106.434 76.4637 107.103 76.2902 107.694 75.9434C108.296 75.5965 108.766 75.1017 109.102 74.459C109.449 73.8163 109.622 73.0716 109.622 72.2249C109.622 71.368 109.449 70.6232 109.102 69.9907C108.766 69.348 108.301 68.8533 107.71 68.5064C107.118 68.1596 106.445 67.9861 105.69 67.9861C104.935 67.9861 104.262 68.1596 103.67 68.5064C103.078 68.8533 102.609 69.348 102.262 69.9907C101.925 70.6232 101.757 71.368 101.757 72.2249C101.757 73.0716 101.925 73.8163 102.262 74.459C102.609 75.1017 103.078 75.5965 103.67 75.9434C104.272 76.2902 104.945 76.4637 105.69 76.4637ZM121.346 77.5654H119.954L114.353 69.0726V77.5654H112.96V66.8844H114.353L119.954 75.3619V66.8844H121.346V77.5654ZM125.189 68.032V71.5975H129.076V72.7452H125.189V76.4177H129.535V77.5654H123.796V66.8844H129.535V68.032H125.189ZM135.1 77.6725C134.396 77.6725 133.764 77.5501 133.203 77.3053C132.652 77.0502 132.218 76.7034 131.902 76.2647C131.586 75.8159 131.423 75.3007 131.412 74.7192H132.897C132.948 75.2191 133.152 75.6424 133.509 75.9893C133.876 76.3259 134.407 76.4943 135.1 76.4943C135.763 76.4943 136.284 76.331 136.661 76.0046C137.049 75.6679 137.243 75.2395 137.243 74.7192C137.243 74.3111 137.13 73.9796 136.906 73.7245C136.681 73.4695 136.401 73.2757 136.064 73.143C135.728 73.0104 135.274 72.8676 134.702 72.7146C133.998 72.5309 133.432 72.3473 133.004 72.1637C132.586 71.9801 132.223 71.6944 131.917 71.3067C131.621 70.9089 131.474 70.3784 131.474 69.7153C131.474 69.1338 131.621 68.6186 131.917 68.1698C132.213 67.7209 132.626 67.374 133.157 67.1292C133.698 66.8844 134.315 66.7619 135.008 66.7619C136.008 66.7619 136.824 67.0119 137.457 67.5117C138.1 68.0116 138.462 68.6747 138.543 69.5011H137.013C136.962 69.093 136.748 68.7359 136.37 68.4299C135.993 68.1136 135.493 67.9555 134.871 67.9555C134.289 67.9555 133.815 68.1085 133.448 68.4146C133.08 68.7104 132.897 69.1287 132.897 69.6694C132.897 70.057 133.004 70.3733 133.218 70.6181C133.442 70.863 133.713 71.0517 134.029 71.1843C134.356 71.3067 134.809 71.4496 135.391 71.6128C136.095 71.8066 136.661 72.0005 137.09 72.1943C137.518 72.3779 137.885 72.6687 138.191 73.0665C138.497 73.4542 138.65 73.9847 138.65 74.658C138.65 75.1783 138.513 75.6679 138.237 76.127C137.962 76.5861 137.554 76.9584 137.013 77.2441C136.472 77.5297 135.835 77.6725 135.1 77.6725ZM152.4 66.8997L148.926 73.5409V77.5654H147.534V73.5409L144.045 66.8997H145.59L148.222 72.3014L150.854 66.8997H152.4ZM161.483 77.6725C160.779 77.6725 160.147 77.5501 159.586 77.3053C159.035 77.0502 158.601 76.7034 158.285 76.2647C157.969 75.8159 157.805 75.3007 157.795 74.7192H159.28C159.331 75.2191 159.535 75.6424 159.892 75.9893C160.259 76.3259 160.789 76.4943 161.483 76.4943C162.146 76.4943 162.667 76.331 163.044 76.0046C163.432 75.6679 163.625 75.2395 163.625 74.7192C163.625 74.3111 163.513 73.9796 163.289 73.7245C163.064 73.4695 162.784 73.2757 162.447 73.143C162.111 73.0104 161.657 72.8676 161.085 72.7146C160.381 72.5309 159.815 72.3473 159.387 72.1637C158.968 71.9801 158.606 71.6944 158.3 71.3067C158.004 70.9089 157.856 70.3784 157.856 69.7153C157.856 69.1338 158.004 68.6186 158.3 68.1698C158.596 67.7209 159.009 67.374 159.54 67.1292C160.08 66.8844 160.698 66.7619 161.391 66.7619C162.391 66.7619 163.207 67.0119 163.84 67.5117C164.482 68.0116 164.845 68.6747 164.926 69.5011H163.396C163.345 69.093 163.131 68.7359 162.753 68.4299C162.376 68.1136 161.876 67.9555 161.254 67.9555C160.672 67.9555 160.198 68.1085 159.83 68.4146C159.463 68.7104 159.28 69.1287 159.28 69.6694C159.28 70.057 159.387 70.3733 159.601 70.6181C159.825 70.863 160.096 71.0517 160.412 71.1843C160.738 71.3067 161.192 71.4496 161.774 71.6128C162.478 71.8066 163.044 72.0005 163.472 72.1943C163.901 72.3779 164.268 72.6687 164.574 73.0665C164.88 73.4542 165.033 73.9847 165.033 74.658C165.033 75.1783 164.896 75.6679 164.62 76.127C164.345 76.5861 163.937 76.9584 163.396 77.2441C162.855 77.5297 162.218 77.6725 161.483 77.6725ZM168.521 66.8997V73.648C168.521 74.5968 168.75 75.3007 169.21 75.7597C169.679 76.2188 170.327 76.4484 171.153 76.4484C171.969 76.4484 172.607 76.2188 173.066 75.7597C173.535 75.3007 173.77 74.5968 173.77 73.648V66.8997H175.162V73.6327C175.162 74.5203 174.984 75.2701 174.627 75.8822C174.27 76.4841 173.785 76.9329 173.173 77.2288C172.571 77.5246 171.893 77.6725 171.138 77.6725C170.383 77.6725 169.699 77.5246 169.087 77.2288C168.485 76.9329 168.006 76.4841 167.649 75.8822C167.302 75.2701 167.128 74.5203 167.128 73.6327V66.8997H168.521ZM188.38 66.9762V77.5654H186.988V69.6694L183.468 77.5654H182.489L178.954 69.6541V77.5654H177.562V66.9762H179.061L182.979 75.7291L186.896 66.9762H188.38ZM192.211 66.8997V77.5654H190.819V66.8997H192.211ZM203.047 77.5654H201.654L196.053 69.0726V77.5654H194.661V66.8844H196.053L201.654 75.3619V66.8844H203.047V77.5654ZM206.889 66.8997V77.5654H205.497V66.8997H206.889ZM212.721 77.6725C212.017 77.6725 211.385 77.5501 210.824 77.3053C210.273 77.0502 209.839 76.7034 209.523 76.2647C209.207 75.8159 209.043 75.3007 209.033 74.7192H210.518C210.569 75.2191 210.773 75.6424 211.13 75.9893C211.497 76.3259 212.027 76.4943 212.721 76.4943C213.384 76.4943 213.904 76.331 214.282 76.0046C214.67 75.6679 214.863 75.2395 214.863 74.7192C214.863 74.3111 214.751 73.9796 214.527 73.7245C214.302 73.4695 214.022 73.2757 213.685 73.143C213.348 73.0104 212.895 72.8676 212.323 72.7146C211.619 72.5309 211.053 72.3473 210.625 72.1637C210.206 71.9801 209.844 71.6944 209.538 71.3067C209.242 70.9089 209.094 70.3784 209.094 69.7153C209.094 69.1338 209.242 68.6186 209.538 68.1698C209.834 67.7209 210.247 67.374 210.778 67.1292C211.318 66.8844 211.936 66.7619 212.629 66.7619C213.629 66.7619 214.445 67.0119 215.078 67.5117C215.72 68.0116 216.083 68.6747 216.164 69.5011H214.634C214.583 69.093 214.369 68.7359 213.991 68.4299C213.614 68.1136 213.114 67.9555 212.492 67.9555C211.91 67.9555 211.436 68.1085 211.068 68.4146C210.701 68.7104 210.518 69.1287 210.518 69.6694C210.518 70.057 210.625 70.3733 210.839 70.6181C211.063 70.863 211.334 71.0517 211.65 71.1843C211.976 71.3067 212.43 71.4496 213.012 71.6128C213.716 71.8066 214.282 72.0005 214.71 72.1943C215.139 72.3779 215.506 72.6687 215.812 73.0665C216.118 73.4542 216.271 73.9847 216.271 74.658C216.271 75.1783 216.134 75.6679 215.858 76.127C215.583 76.5861 215.175 76.9584 214.634 77.2441C214.093 77.5297 213.456 77.6725 212.721 77.6725ZM224.962 66.8997V68.032H222.054V77.5654H220.662V68.032H217.739V66.8997H224.962ZM232.368 77.5654L229.828 73.2042H228.145V77.5654H226.752V66.8997H230.195C231.001 66.8997 231.68 67.0374 232.231 67.3128C232.792 67.5883 233.21 67.9606 233.485 68.4299C233.761 68.8992 233.899 69.4348 233.899 70.0366C233.899 70.7712 233.684 71.419 233.256 71.9801C232.838 72.5411 232.205 72.9135 231.358 73.0971L234.036 77.5654H232.368ZM228.145 72.0872H230.195C230.95 72.0872 231.516 71.9035 231.894 71.5363C232.271 71.1588 232.46 70.6589 232.46 70.0366C232.46 69.4041 232.271 68.9145 231.894 68.5676C231.527 68.2208 230.96 68.0473 230.195 68.0473H228.145V72.0872ZM240.974 77.6725C239.985 77.6725 239.082 77.443 238.266 76.9839C237.45 76.5147 236.802 75.8669 236.322 75.0405C235.853 74.204 235.619 73.2655 235.619 72.2249C235.619 71.1843 235.853 70.2509 236.322 69.4245C236.802 68.588 237.45 67.9402 238.266 67.4811C239.082 67.0119 239.985 66.7772 240.974 66.7772C241.974 66.7772 242.882 67.0119 243.698 67.4811C244.514 67.9402 245.157 68.5829 245.626 69.4092C246.096 70.2356 246.33 71.1741 246.33 72.2249C246.33 73.2757 246.096 74.2142 245.626 75.0405C245.157 75.8669 244.514 76.5147 243.698 76.9839C242.882 77.443 241.974 77.6725 240.974 77.6725ZM240.974 76.4637C241.719 76.4637 242.387 76.2902 242.979 75.9434C243.581 75.5965 244.05 75.1017 244.387 74.459C244.734 73.8163 244.907 73.0716 244.907 72.2249C244.907 71.368 244.734 70.6232 244.387 69.9907C244.05 69.348 243.586 68.8533 242.994 68.5064C242.403 68.1596 241.729 67.9861 240.974 67.9861C240.219 67.9861 239.546 68.1596 238.954 68.5064C238.363 68.8533 237.893 69.348 237.547 69.9907C237.21 70.6232 237.042 71.368 237.042 72.2249C237.042 73.0716 237.21 73.8163 237.547 74.459C237.893 75.1017 238.363 75.5965 238.954 75.9434C239.556 76.2902 240.23 76.4637 240.974 76.4637ZM251.627 77.6725C250.923 77.6725 250.29 77.5501 249.729 77.3053C249.178 77.0502 248.745 76.7034 248.429 76.2647C248.112 75.8159 247.949 75.3007 247.939 74.7192H249.423C249.474 75.2191 249.678 75.6424 250.035 75.9893C250.403 76.3259 250.933 76.4943 251.627 76.4943C252.29 76.4943 252.81 76.331 253.188 76.0046C253.575 75.6679 253.769 75.2395 253.769 74.7192C253.769 74.3111 253.657 73.9796 253.433 73.7245C253.208 73.4695 252.928 73.2757 252.591 73.143C252.254 73.0104 251.8 72.8676 251.229 72.7146C250.525 72.5309 249.959 72.3473 249.53 72.1637C249.112 71.9801 248.75 71.6944 248.444 71.3067C248.148 70.9089 248 70.3784 248 69.7153C248 69.1338 248.148 68.6186 248.444 68.1698C248.74 67.7209 249.153 67.374 249.683 67.1292C250.224 66.8844 250.841 66.7619 251.535 66.7619C252.535 66.7619 253.351 67.0119 253.983 67.5117C254.626 68.0116 254.988 68.6747 255.07 69.5011H253.54C253.489 69.093 253.274 68.7359 252.897 68.4299C252.519 68.1136 252.02 67.9555 251.397 67.9555C250.816 67.9555 250.341 68.1085 249.974 68.4146C249.607 68.7104 249.423 69.1287 249.423 69.6694C249.423 70.057 249.53 70.3733 249.745 70.6181C249.969 70.863 250.239 71.0517 250.556 71.1843C250.882 71.3067 251.336 71.4496 251.918 71.6128C252.622 71.8066 253.188 72.0005 253.616 72.1943C254.045 72.3779 254.412 72.6687 254.718 73.0665C255.024 73.4542 255.177 73.9847 255.177 74.658C255.177 75.1783 255.039 75.6679 254.764 76.127C254.488 76.5861 254.08 76.9584 253.54 77.2441C252.999 77.5297 252.361 77.6725 251.627 77.6725ZM258.741 75.6373L257.027 79.7537H256.094L257.211 75.6373H258.741ZM264.049 72.2249C264.049 71.1843 264.283 70.2509 264.753 69.4245C265.222 68.588 265.859 67.9351 266.665 67.4658C267.482 66.9966 268.384 66.7619 269.374 66.7619C270.537 66.7619 271.552 67.0425 272.419 67.6036C273.286 68.1647 273.919 68.9604 274.317 69.9907H272.649C272.353 69.348 271.924 68.8533 271.363 68.5064C270.812 68.1596 270.149 67.9861 269.374 67.9861C268.629 67.9861 267.961 68.1596 267.369 68.5064C266.778 68.8533 266.313 69.348 265.977 69.9907C265.64 70.6232 265.472 71.368 265.472 72.2249C265.472 73.0716 265.64 73.8163 265.977 74.459C266.313 75.0915 266.778 75.5812 267.369 75.9281C267.961 76.2749 268.629 76.4484 269.374 76.4484C270.149 76.4484 270.812 76.28 271.363 75.9434C271.924 75.5965 272.353 75.1017 272.649 74.459H274.317C273.919 75.4792 273.286 76.2698 272.419 76.8309C271.552 77.3818 270.537 77.6572 269.374 77.6572C268.384 77.6572 267.482 77.4277 266.665 76.9686C265.859 76.4994 265.222 75.8516 264.753 75.0252C264.283 74.1989 264.049 73.2655 264.049 72.2249ZM276.91 77.6572C276.645 77.6572 276.42 77.5654 276.236 77.3818C276.053 77.1982 275.961 76.9737 275.961 76.7085C275.961 76.4433 276.053 76.2188 276.236 76.0352C276.42 75.8516 276.645 75.7597 276.91 75.7597C277.165 75.7597 277.379 75.8516 277.552 76.0352C277.736 76.2188 277.828 76.4433 277.828 76.7085C277.828 76.9737 277.736 77.1982 277.552 77.3818C277.379 77.5654 277.165 77.6572 276.91 77.6572ZM286.06 75.1936H281.408L280.551 77.5654H279.082L282.938 66.9609H284.545L288.386 77.5654H286.917L286.06 75.1936ZM285.662 74.0612L283.734 68.6747L281.806 74.0612H285.662Z" fill="#E5E6E6"/>
</svg>
