<svg width="120" height="24" viewBox="0 0 120 24" fill="none" xmlns="http://www.w3.org/2000/svg">
<rect y="0.776245" width="3.9461" height="22.5768" fill="#303030"/>
<path fill-rule="evenodd" clip-rule="evenodd" d="M9.05469 0.794434H13.027V6.88532L23.8311 2.3215V0.794434H27.8033V23.357H23.8311V6.63363L13.027 11.1975V23.357H9.05469V0.794434Z" fill="#303030"/>
<path fill-rule="evenodd" clip-rule="evenodd" d="M32.8906 0.63562H36.8629V6.72669L47.6672 2.16279V0.635662H51.6394V23.1982H47.6672V6.47492L36.8629 11.0388V23.1981H32.8906V0.63562Z" fill="#303030"/>
<path fill-rule="evenodd" clip-rule="evenodd" d="M67.4493 23.8337C73.8114 23.8337 78.9689 18.5695 78.9689 12.0758C78.9689 5.58208 73.8114 0.317871 67.4493 0.317871C61.0872 0.317871 55.9297 5.58208 55.9297 12.0758C55.9297 18.5695 61.0872 23.8337 67.4493 23.8337ZM67.449 19.7025C71.5295 19.7025 74.8374 16.2879 74.8374 12.0758C74.8374 7.86363 71.5295 4.44901 67.449 4.44901C63.3685 4.44901 60.0605 7.86363 60.0605 12.0758C60.0605 16.2879 63.3685 19.7025 67.449 19.7025Z" fill="#303030"/>
<path fill-rule="evenodd" clip-rule="evenodd" d="M83.9519 0L80.2402 1.41516L88.6609 23.5005V23.5159H88.6667L88.6696 23.5233L88.6891 23.5159H92.5975L92.617 23.5233L92.6198 23.5159H92.6331V23.481L101.046 1.41516L97.3347 0L90.6433 17.55L83.9519 0Z" fill="#303030"/>
<path fill-rule="evenodd" clip-rule="evenodd" d="M98.5137 22.585L102.225 24.0002L105.621 15.0947H112.214L115.609 24.0002L119.321 22.585L110.907 0.51659V0.484245H110.894L110.891 0.476807L110.872 0.484245H106.963L106.943 0.476807L106.94 0.484245H106.934V0.49966L98.5137 22.585ZM111.002 11.9169L108.917 6.44888L106.832 11.9169H111.002Z" fill="#303030"/>
</svg>
