<svg width="108" height="20" viewBox="0 0 108 20" fill="none" xmlns="http://www.w3.org/2000/svg">
<rect x="4" y="0.647461" width="3.28841" height="18.814" fill="#A5A5A5"/>
<path fill-rule="evenodd" clip-rule="evenodd" d="M11.5459 0.662109H14.8561V5.73782L23.8593 1.93474V0.662109H27.1695V19.4642H23.8593V5.52819L14.8561 9.33127V19.4642H11.5459V0.662109Z" fill="#A5A5A5"/>
<path fill-rule="evenodd" clip-rule="evenodd" d="M31.4082 0.530273H34.7184V5.60599L43.7216 1.80291V0.530273H47.0318V19.3324H43.7216V5.39635L34.7184 9.19943V19.3324H31.4082V0.530273Z" fill="#964301"/>
<path fill-rule="evenodd" clip-rule="evenodd" d="M60.2071 19.8622C65.5088 19.8622 69.8068 15.4753 69.8068 10.0639C69.8068 4.65246 65.5088 0.265625 60.2071 0.265625C54.9053 0.265625 50.6074 4.65246 50.6074 10.0639C50.6074 15.4753 54.9053 19.8622 60.2071 19.8622ZM60.2067 16.4193C63.6072 16.4193 66.3638 13.5738 66.3638 10.0636C66.3638 6.55352 63.6072 3.70801 60.2067 3.70801C56.8063 3.70801 54.0497 6.55352 54.0497 10.0636C54.0497 13.5738 56.8063 16.4193 60.2067 16.4193Z" fill="#964301"/>
<path fill-rule="evenodd" clip-rule="evenodd" d="M73.9602 0.000976562L70.8672 1.18028L77.885 19.5864V19.5975H77.8893L77.8916 19.6038L77.908 19.5975H81.1648L81.1812 19.6038L81.1835 19.5975H81.1953V19.5668L88.2056 1.18028L85.1126 0.000976562L79.5364 14.626L73.9602 0.000976562Z" fill="#964301"/>
<path fill-rule="evenodd" clip-rule="evenodd" d="M86.0928 18.8205L89.1858 19.9998L92.0153 12.5786H97.5098L100.339 19.9998L103.432 18.8205L96.4208 0.430895V0.403214H96.4103L96.4079 0.396973L96.3915 0.403214H93.1336L93.1172 0.396973L93.1148 0.403214H93.1106V0.41431L86.0928 18.8205ZM96.5001 9.93045L94.7626 5.37323L93.025 9.93045H96.5001Z" fill="#964301"/>
</svg>
