<svg width="145" height="40" viewBox="0 0 145 40" fill="none" xmlns="http://www.w3.org/2000/svg">
<g clip-path="url(#clip0_409_1287)">
<path d="M5.74684 0.956543H0.964844V28.1183H5.74684V0.956543Z" fill="#CCCDCF"/>
<path fill-rule="evenodd" clip-rule="evenodd" d="M11.8672 0.956543H16.6492V8.28958L29.656 2.79527V0.956543H34.438V28.1183H29.656V7.98641L16.6492 13.4807V28.1183H11.8672V0.956543Z" fill="#CCCDCF"/>
<path fill-rule="evenodd" clip-rule="evenodd" d="M40.5605 0.765137H45.3425V8.09774L58.3493 2.60345V0.765137H63.1313V27.9269H58.3493V7.79458L45.3425 13.2889V27.9269H40.5605V0.765137Z" fill="#CCCDCF"/>
<path fill-rule="evenodd" clip-rule="evenodd" d="M82.1646 28.6923C89.8235 28.6923 96.0326 22.355 96.0326 14.5375C96.0326 6.72009 89.8235 0.382812 82.1646 0.382812C74.5056 0.382812 68.2969 6.72009 68.2969 14.5375C68.2969 22.355 74.5056 28.6923 82.1646 28.6923ZM82.1636 23.7193C87.076 23.7193 91.0585 19.6086 91.0585 14.5378C91.0585 9.467 87.076 5.35634 82.1636 5.35634C77.2513 5.35634 73.269 9.467 73.269 14.5378C73.269 19.6086 77.2513 23.7193 82.1636 23.7193Z" fill="#CCCDCF"/>
<path fill-rule="evenodd" clip-rule="evenodd" d="M102.027 0.000488281L97.5586 1.70412L107.698 28.2958V28.3097H107.703L107.706 28.3189L107.73 28.3097H112.436L112.46 28.3189L112.464 28.3097H112.479V28.2678L122.608 1.70412L118.139 0.000488281L110.084 21.1301L102.027 0.000488281Z" fill="#CCCDCF"/>
<path fill-rule="evenodd" clip-rule="evenodd" d="M119.559 27.1886L124.027 28.8922L128.114 18.1714H136.051L140.139 28.8922L144.607 27.1886L134.479 0.622689V0.582497H134.463L134.459 0.57373L134.437 0.582497H129.729L129.706 0.57373L129.703 0.582497H129.696V0.598947L119.559 27.1886ZM134.593 14.3457L132.083 7.76258L129.573 14.3457H134.593Z" fill="#CCCDCF"/>
<path d="M0.527344 35.6128C0.527344 35.0925 0.644663 34.6258 0.879297 34.2126C1.11394 33.7943 1.43274 33.4679 1.8357 33.2333C2.24376 32.9986 2.69519 32.8813 3.18996 32.8813C3.77146 32.8813 4.27898 33.0216 4.71256 33.3021C5.14612 33.5827 5.46237 33.9805 5.6613 34.4957H4.82732C4.6794 34.1743 4.46516 33.927 4.18462 33.7535C3.90917 33.5801 3.57762 33.4934 3.18996 33.4934C2.81761 33.4934 2.48351 33.5801 2.18766 33.7535C1.89181 33.927 1.65972 34.1743 1.4914 34.4957C1.32307 34.8119 1.23891 35.1843 1.23891 35.6128C1.23891 36.0362 1.32307 36.4085 1.4914 36.7298C1.65972 37.0461 1.89181 37.2909 2.18766 37.4643C2.48351 37.6378 2.81761 37.7245 3.18996 37.7245C3.57762 37.7245 3.90917 37.6403 4.18462 37.472C4.46516 37.2986 4.6794 37.0512 4.82732 36.7298H5.6613C5.46237 37.2399 5.14612 37.6353 4.71256 37.9158C4.27898 38.1913 3.77146 38.3289 3.18996 38.3289C2.69519 38.3289 2.24376 38.2142 1.8357 37.9847C1.43274 37.75 1.11394 37.4261 0.879297 37.0129C0.644663 36.5998 0.527344 36.1331 0.527344 35.6128ZM9.15381 38.3366C8.65898 38.3366 8.20758 38.2218 7.79951 37.9923C7.39145 37.7577 7.06755 37.4338 6.82781 37.0206C6.59317 36.6023 6.47586 36.1331 6.47586 35.6128C6.47586 35.0925 6.59317 34.6258 6.82781 34.2126C7.06755 33.7943 7.39145 33.4704 7.79951 33.2409C8.20758 33.0063 8.65898 32.8889 9.15381 32.8889C9.65365 32.8889 10.1076 33.0063 10.5157 33.2409C10.9237 33.4704 11.2451 33.7918 11.4797 34.2049C11.7144 34.6181 11.8317 35.0874 11.8317 35.6128C11.8317 36.1382 11.7144 36.6074 11.4797 37.0206C11.2451 37.4338 10.9237 37.7577 10.5157 37.9923C10.1076 38.2218 9.65365 38.3366 9.15381 38.3366ZM9.15381 37.7322C9.52615 37.7322 9.86023 37.6454 10.1561 37.472C10.4571 37.2986 10.6916 37.0512 10.86 36.7298C11.0334 36.4085 11.1201 36.0362 11.1201 35.6128C11.1201 35.1843 11.0334 34.8119 10.86 34.4957C10.6916 34.1743 10.4596 33.927 10.1637 33.7535C9.8679 33.5801 9.53123 33.4934 9.15381 33.4934C8.77631 33.4934 8.43965 33.5801 8.14381 33.7535C7.84797 33.927 7.61333 34.1743 7.43991 34.4957C7.27158 34.8119 7.18741 35.1843 7.18741 35.6128C7.18741 36.0362 7.27158 36.4085 7.43991 36.7298C7.61333 37.0512 7.84797 37.2986 8.14381 37.472C8.44473 37.6454 8.7814 37.7322 9.15381 37.7322ZM16.982 38.2831H16.2857L13.4854 34.0367V38.2831H12.7891V32.9425H13.4854L16.2857 37.1813V32.9425H16.982V38.2831ZM19.8981 38.3366C19.5461 38.3366 19.2298 38.2754 18.9493 38.153C18.6738 38.0254 18.4571 37.852 18.2989 37.6327C18.1408 37.4083 18.0592 37.1507 18.0541 36.8599H18.7962C18.8217 37.1098 18.9238 37.3216 19.1023 37.495C19.286 37.6633 19.5511 37.7475 19.8981 37.7475C20.2296 37.7475 20.4897 37.6658 20.6785 37.5026C20.8723 37.3343 20.9692 37.1201 20.9692 36.8599C20.9692 36.6559 20.9131 36.4901 20.8009 36.3626C20.6886 36.2351 20.5484 36.1382 20.3801 36.0718C20.2117 36.0055 19.9847 35.9342 19.6991 35.8576C19.3471 35.7658 19.0641 35.674 18.8498 35.5822C18.6406 35.4903 18.4596 35.3475 18.3066 35.1537C18.1586 34.9548 18.0847 34.6895 18.0847 34.358C18.0847 34.0673 18.1586 33.8097 18.3066 33.5852C18.4545 33.3608 18.6611 33.1873 18.9263 33.0649C19.1966 32.9425 19.5053 32.8813 19.8521 32.8813C20.352 32.8813 20.7601 33.0063 21.0763 33.2562C21.3976 33.5062 21.5787 33.8377 21.6196 34.2508H20.8544C20.8289 34.0468 20.7218 33.8683 20.5331 33.7153C20.3444 33.5572 20.0944 33.4781 19.7832 33.4781C19.4926 33.4781 19.2553 33.5546 19.0717 33.7077C18.8881 33.8556 18.7962 34.0647 18.7962 34.335C18.7962 34.5288 18.8498 34.687 18.9569 34.8094C19.0691 34.9318 19.2043 35.0262 19.3625 35.0925C19.5256 35.1537 19.7526 35.2251 20.0434 35.3068C20.3954 35.4037 20.6785 35.5006 20.8927 35.5975C21.1069 35.6893 21.2906 35.8347 21.4436 36.0336C21.5966 36.2274 21.6731 36.4927 21.6731 36.8293C21.6731 37.0894 21.6042 37.3343 21.4666 37.5638C21.3288 37.7933 21.1248 37.9796 20.8544 38.1223C20.5841 38.2652 20.2653 38.3366 19.8981 38.3366ZM26.0183 32.9502V33.5163H24.5646V38.2831H23.8683V33.5163H22.407V32.9502H26.0183ZM29.7216 38.2831L28.4516 36.1024H27.6099V38.2831H26.9136V32.9502H28.6351C29.0381 32.9502 29.3773 33.019 29.6528 33.1568C29.9333 33.2945 30.1425 33.4807 30.2801 33.7153C30.4179 33.9499 30.4867 34.2177 30.4867 34.5187C30.4867 34.8859 30.3796 35.2098 30.1654 35.4903C29.9563 35.7709 29.6401 35.9571 29.2166 36.0489L30.5556 38.2831H29.7216ZM27.6099 35.5439H28.6351C29.0126 35.5439 29.2957 35.4521 29.4845 35.2685C29.6731 35.0798 29.7676 34.8298 29.7676 34.5187C29.7676 34.2024 29.6731 33.9576 29.4845 33.7842C29.3008 33.6108 29.0177 33.524 28.6351 33.524H27.6099V35.5439ZM32.2878 32.9502V36.3243C32.2878 36.7988 32.4026 37.1507 32.6321 37.3802C32.8668 37.6098 33.1906 37.7245 33.6038 37.7245C34.0119 37.7245 34.3307 37.6098 34.5602 37.3802C34.7949 37.1507 34.9122 36.7988 34.9122 36.3243V32.9502H35.6085V36.3167C35.6085 36.7604 35.5192 37.1353 35.3406 37.4414C35.1621 37.7423 34.9199 37.9668 34.6138 38.1148C34.3129 38.2627 33.9736 38.3366 33.5962 38.3366C33.2187 38.3366 32.877 38.2627 32.5709 38.1148C32.27 37.9668 32.0302 37.7423 31.8517 37.4414C31.6783 37.1353 31.5916 36.7604 31.5916 36.3167V32.9502H32.2878ZM36.5481 35.6128C36.5481 35.0925 36.6654 34.6258 36.9001 34.2126C37.1346 33.7943 37.4535 33.4679 37.8564 33.2333C38.2645 32.9986 38.7159 32.8813 39.2106 32.8813C39.7921 32.8813 40.2997 33.0216 40.7333 33.3021C41.1668 33.5827 41.4831 33.9805 41.6821 34.4957H40.8481C40.7001 34.1743 40.4859 33.927 40.2053 33.7535C39.9299 33.5801 39.5983 33.4934 39.2106 33.4934C38.8383 33.4934 38.5042 33.5801 38.2084 33.7535C37.9126 33.927 37.6805 34.1743 37.5121 34.4957C37.3438 34.8119 37.2596 35.1843 37.2596 35.6128C37.2596 36.0362 37.3438 36.4085 37.5121 36.7298C37.6805 37.0461 37.9126 37.2909 38.2084 37.4643C38.5042 37.6378 38.8383 37.7245 39.2106 37.7245C39.5983 37.7245 39.9299 37.6403 40.2053 37.472C40.4859 37.2986 40.7001 37.0512 40.8481 36.7298H41.6821C41.4831 37.2399 41.1668 37.6353 40.7333 37.9158C40.2997 38.1913 39.7921 38.3289 39.2106 38.3289C38.7159 38.3289 38.2645 38.2142 37.8564 37.9847C37.4535 37.75 37.1346 37.4261 36.9001 37.0129C36.6654 36.5998 36.5481 36.1331 36.5481 35.6128ZM42.4966 35.6128C42.4966 35.0925 42.6139 34.6258 42.8486 34.2126C43.0831 33.7943 43.402 33.4679 43.8049 33.2333C44.213 32.9986 44.6644 32.8813 45.1592 32.8813C45.7406 32.8813 46.2482 33.0216 46.6818 33.3021C47.1153 33.5827 47.4316 33.9805 47.6306 34.4957H46.7966C46.6486 34.1743 46.4344 33.927 46.1538 33.7535C45.8784 33.5801 45.5469 33.4934 45.1592 33.4934C44.7868 33.4934 44.4527 33.5801 44.1569 33.7535C43.8611 33.927 43.629 34.1743 43.4606 34.4957C43.2923 34.8119 43.2081 35.1843 43.2081 35.6128C43.2081 36.0362 43.2923 36.4085 43.4606 36.7298C43.629 37.0461 43.8611 37.2909 44.1569 37.4643C44.4527 37.6378 44.7868 37.7245 45.1592 37.7245C45.5469 37.7245 45.8784 37.6403 46.1538 37.472C46.4344 37.2986 46.6486 37.0512 46.7966 36.7298H47.6306C47.4316 37.2399 47.1153 37.6353 46.6818 37.9158C46.2482 38.1913 45.7406 38.3289 45.1592 38.3289C44.6644 38.3289 44.213 38.2142 43.8049 37.9847C43.402 37.75 43.0831 37.4261 42.8486 37.0129C42.6139 36.5998 42.4966 36.1331 42.4966 35.6128ZM49.4015 32.9502V38.2831H48.7052V32.9502H49.4015ZM53.0441 38.3366C52.5494 38.3366 52.098 38.2218 51.6899 37.9923C51.2818 37.7577 50.958 37.4338 50.7182 37.0206C50.4836 36.6023 50.3662 36.1331 50.3662 35.6128C50.3662 35.0925 50.4836 34.6258 50.7182 34.2126C50.958 33.7943 51.2818 33.4704 51.6899 33.2409C52.098 33.0063 52.5494 32.8889 53.0441 32.8889C53.5441 32.8889 53.9981 33.0063 54.4061 33.2409C54.8141 33.4704 55.1355 33.7918 55.3702 34.2049C55.6048 34.6181 55.7221 35.0874 55.7221 35.6128C55.7221 36.1382 55.6048 36.6074 55.3702 37.0206C55.1355 37.4338 54.8141 37.7577 54.4061 37.9923C53.9981 38.2218 53.5441 38.3366 53.0441 38.3366ZM53.0441 37.7322C53.4166 37.7322 53.7506 37.6454 54.0465 37.472C54.3474 37.2986 54.5821 37.0512 54.7504 36.7298C54.9238 36.4085 55.0106 36.0362 55.0106 35.6128C55.0106 35.1843 54.9238 34.8119 54.7504 34.4957C54.5821 34.1743 54.35 33.927 54.0541 33.7535C53.7583 33.5801 53.4216 33.4934 53.0441 33.4934C52.6667 33.4934 52.3301 33.5801 52.0342 33.7535C51.7384 33.927 51.5037 34.1743 51.3303 34.4957C51.162 34.8119 51.0778 35.1843 51.0778 35.6128C51.0778 36.0362 51.162 36.4085 51.3303 36.7298C51.5037 37.0512 51.7384 37.2986 52.0342 37.472C52.3351 37.6454 52.6718 37.7322 53.0441 37.7322ZM60.8724 38.2831H60.1761L57.3758 34.0367V38.2831H56.6795V32.9425H57.3758L60.1761 37.1813V32.9425H60.8724V38.2831ZM62.7938 33.5163V35.2991H64.7371V35.8729H62.7938V37.7092H64.9667V38.2831H62.0975V32.9425H64.9667V33.5163H62.7938ZM67.7494 38.3366C67.3975 38.3366 67.0812 38.2754 66.8007 38.153C66.5252 38.0254 66.3085 37.852 66.1503 37.6327C65.9922 37.4083 65.9106 37.1507 65.9055 36.8599H66.6477C66.6731 37.1098 66.7752 37.3216 66.9537 37.495C67.1373 37.6633 67.4026 37.7475 67.7494 37.7475C68.081 37.7475 68.3411 37.6658 68.5298 37.5026C68.7236 37.3343 68.8206 37.1201 68.8206 36.8599C68.8206 36.6559 68.7645 36.4901 68.6522 36.3626C68.5401 36.2351 68.3998 36.1382 68.2315 36.0718C68.0631 36.0055 67.8361 35.9342 67.5505 35.8576C67.1986 35.7658 66.9155 35.674 66.7012 35.5822C66.4921 35.4903 66.311 35.3475 66.158 35.1537C66.0101 34.9548 65.9361 34.6895 65.9361 34.358C65.9361 34.0673 66.0101 33.8097 66.158 33.5852C66.3059 33.3608 66.5125 33.1873 66.7777 33.0649C67.0481 32.9425 67.3566 32.8813 67.7035 32.8813C68.2034 32.8813 68.6115 33.0063 68.9277 33.2562C69.2491 33.5062 69.4302 33.8377 69.471 34.2508H68.7058C68.6803 34.0468 68.5732 33.8683 68.3845 33.7153C68.1957 33.5572 67.9458 33.4781 67.6347 33.4781C67.3439 33.4781 67.1067 33.5546 66.9231 33.7077C66.7395 33.8556 66.6477 34.0647 66.6477 34.335C66.6477 34.5288 66.7012 34.687 66.8083 34.8094C66.9206 34.9318 67.0557 35.0262 67.2138 35.0925C67.3771 35.1537 67.6041 35.2251 67.8948 35.3068C68.2467 35.4037 68.5298 35.5006 68.7441 35.5975C68.9583 35.6893 69.142 35.8347 69.295 36.0336C69.448 36.2274 69.5245 36.4927 69.5245 36.8293C69.5245 37.0894 69.4557 37.3343 69.3179 37.5638C69.1802 37.7933 68.9762 37.9796 68.7058 38.1223C68.4355 38.2652 68.1166 38.3366 67.7494 38.3366ZM76.3992 32.9502L74.6624 36.2708V38.2831H73.9661V36.2708L72.2216 32.9502H72.9945L74.3105 35.651L75.6265 32.9502H76.3992ZM80.9409 38.3366C80.5889 38.3366 80.2726 38.2754 79.9921 38.153C79.7166 38.0254 79.4999 37.852 79.3418 37.6327C79.1836 37.4083 79.1021 37.1507 79.097 36.8599H79.8391C79.8646 37.1098 79.9666 37.3216 80.1451 37.495C80.3288 37.6633 80.5941 37.7475 80.9409 37.7475C81.2724 37.7475 81.5326 37.6658 81.7213 37.5026C81.9152 37.3343 82.0121 37.1201 82.0121 36.8599C82.0121 36.6559 81.956 36.4901 81.8437 36.3626C81.7315 36.2351 81.5912 36.1382 81.4229 36.0718C81.2546 36.0055 81.0276 35.9342 80.742 35.8576C80.39 35.7658 80.1069 35.674 79.8926 35.5822C79.6836 35.4903 79.5025 35.3475 79.3494 35.1537C79.2015 34.9548 79.1276 34.6895 79.1276 34.358C79.1276 34.0673 79.2015 33.8097 79.3494 33.5852C79.4973 33.3608 79.7039 33.1873 79.9691 33.0649C80.2395 32.9425 80.5481 32.8813 80.895 32.8813C81.3948 32.8813 81.8029 33.0063 82.1191 33.2562C82.4405 33.5062 82.6216 33.8377 82.6624 34.2508H81.8973C81.8718 34.0468 81.7646 33.8683 81.5759 33.7153C81.3872 33.5572 81.1372 33.4781 80.8261 33.4781C80.5354 33.4781 80.2981 33.5546 80.1146 33.7077C79.9309 33.8556 79.8391 34.0647 79.8391 34.335C79.8391 34.5288 79.8926 34.687 79.9998 34.8094C80.112 34.9318 80.2471 35.0262 80.4053 35.0925C80.5686 35.1537 80.7955 35.2251 81.0862 35.3068C81.4382 35.4037 81.7213 35.5006 81.9356 35.5975C82.1497 35.6893 82.3334 35.8347 82.4864 36.0336C82.6395 36.2274 82.716 36.4927 82.716 36.8293C82.716 37.0894 82.6471 37.3343 82.5094 37.5638C82.3716 37.7933 82.1676 37.9796 81.8973 38.1223C81.6269 38.2652 81.3082 38.3366 80.9409 38.3366ZM84.4598 32.9502V36.3243C84.4598 36.7988 84.5748 37.1507 84.804 37.3802C85.039 37.6098 85.3623 37.7245 85.7757 37.7245C86.184 37.7245 86.5023 37.6098 86.7323 37.3802C86.9665 37.1507 87.084 36.7988 87.084 36.3243V32.9502H87.7806V36.3167C87.7806 36.7604 87.6915 37.1353 87.5123 37.4414C87.334 37.7423 87.0915 37.9668 86.7856 38.1148C86.4848 38.2627 86.1457 38.3366 85.7682 38.3366C85.3906 38.3366 85.049 38.2627 84.7431 38.1148C84.4423 37.9668 84.2023 37.7423 84.024 37.4414C83.8498 37.1353 83.7631 36.7604 83.7631 36.3167V32.9502H84.4598ZM94.3898 32.9884V38.2831H93.6931V34.335L91.9331 38.2831H91.444L89.6765 34.3273V38.2831H88.9798V32.9884H89.7298L91.689 37.3649L93.6473 32.9884H94.3898ZM96.3048 32.9502V38.2831H95.609V32.9502H96.3048ZM101.722 38.2831H101.026L98.2256 34.0367V38.2831H97.5298V32.9425H98.2256L101.026 37.1813V32.9425H101.722V38.2831ZM103.644 32.9502V38.2831H102.948V32.9502H103.644ZM106.56 38.3366C106.208 38.3366 105.891 38.2754 105.611 38.153C105.336 38.0254 105.119 37.852 104.961 37.6327C104.802 37.4083 104.721 37.1507 104.716 36.8599H105.458C105.484 37.1098 105.586 37.3216 105.764 37.495C105.948 37.6633 106.213 37.7475 106.56 37.7475C106.891 37.7475 107.151 37.6658 107.341 37.5026C107.534 37.3343 107.631 37.1201 107.631 36.8599C107.631 36.6559 107.575 36.4901 107.462 36.3626C107.351 36.2351 107.21 36.1382 107.041 36.0718C106.873 36.0055 106.646 35.9342 106.361 35.8576C106.009 35.7658 105.726 35.674 105.511 35.5822C105.302 35.4903 105.121 35.3475 104.968 35.1537C104.821 34.9548 104.746 34.6895 104.746 34.358C104.746 34.0673 104.821 33.8097 104.968 33.5852C105.116 33.3608 105.323 33.1873 105.588 33.0649C105.858 32.9425 106.167 32.8813 106.514 32.8813C107.014 32.8813 107.421 33.0063 107.738 33.2562C108.06 33.5062 108.241 33.8377 108.281 34.2508H107.516C107.491 34.0468 107.384 33.8683 107.195 33.7153C107.006 33.5572 106.756 33.4781 106.445 33.4781C106.154 33.4781 105.917 33.5546 105.733 33.7077C105.55 33.8556 105.458 34.0647 105.458 34.335C105.458 34.5288 105.511 34.687 105.619 34.8094C105.731 34.9318 105.866 35.0262 106.024 35.0925C106.187 35.1537 106.415 35.2251 106.705 35.3068C107.057 35.4037 107.341 35.5006 107.555 35.5975C107.769 35.6893 107.952 35.8347 108.106 36.0336C108.258 36.2274 108.335 36.4927 108.335 36.8293C108.335 37.0894 108.266 37.3343 108.128 37.5638C107.991 37.7933 107.786 37.9796 107.516 38.1223C107.246 38.2652 106.927 38.3366 106.56 38.3366ZM112.68 32.9502V33.5163H111.226V38.2831H110.53V33.5163H109.069V32.9502H112.68ZM116.383 38.2831L115.113 36.1024H114.271V38.2831H113.576V32.9502H115.297C115.7 32.9502 116.039 33.019 116.315 33.1568C116.595 33.2945 116.804 33.4807 116.942 33.7153C117.08 33.9499 117.149 34.2177 117.149 34.5187C117.149 34.8859 117.041 35.2098 116.827 35.4903C116.618 35.7709 116.301 35.9571 115.878 36.0489L117.217 38.2831H116.383ZM114.271 35.5439H115.297C115.675 35.5439 115.957 35.4521 116.146 35.2685C116.335 35.0798 116.429 34.8298 116.429 34.5187C116.429 34.2024 116.335 33.9576 116.146 33.7842C115.962 33.6108 115.68 33.524 115.297 33.524H114.271V35.5439ZM120.686 38.3366C120.191 38.3366 119.741 38.2218 119.332 37.9923C118.924 37.7577 118.601 37.4338 118.361 37.0206C118.126 36.6023 118.008 36.1331 118.008 35.6128C118.008 35.0925 118.126 34.6258 118.361 34.2126C118.601 33.7943 118.924 33.4704 119.332 33.2409C119.741 33.0063 120.191 32.8889 120.686 32.8889C121.186 32.8889 121.641 33.0063 122.048 33.2409C122.456 33.4704 122.778 33.7918 123.012 34.2049C123.247 34.6181 123.365 35.0874 123.365 35.6128C123.365 36.1382 123.247 36.6074 123.012 37.0206C122.778 37.4338 122.456 37.7577 122.048 37.9923C121.641 38.2218 121.186 38.3366 120.686 38.3366ZM120.686 37.7322C121.059 37.7322 121.393 37.6454 121.689 37.472C121.99 37.2986 122.224 37.0512 122.392 36.7298C122.566 36.4085 122.653 36.0362 122.653 35.6128C122.653 35.1843 122.566 34.8119 122.392 34.4957C122.224 34.1743 121.992 33.927 121.696 33.7535C121.401 33.5801 121.064 33.4934 120.686 33.4934C120.309 33.4934 119.972 33.5801 119.676 33.7535C119.381 33.927 119.146 34.1743 118.972 34.4957C118.804 34.8119 118.72 35.1843 118.72 35.6128C118.72 36.0362 118.804 36.4085 118.972 36.7298C119.146 37.0512 119.381 37.2986 119.676 37.472C119.977 37.6454 120.314 37.7322 120.686 37.7322ZM126.012 38.3366C125.661 38.3366 125.345 38.2754 125.064 38.153C124.788 38.0254 124.571 37.852 124.414 37.6327C124.256 37.4083 124.174 37.1507 124.169 36.8599H124.911C124.936 37.1098 125.038 37.3216 125.217 37.495C125.401 37.6633 125.666 37.7475 126.012 37.7475C126.344 37.7475 126.605 37.6658 126.793 37.5026C126.987 37.3343 127.084 37.1201 127.084 36.8599C127.084 36.6559 127.028 36.4901 126.916 36.3626C126.803 36.2351 126.663 36.1382 126.495 36.0718C126.326 36.0055 126.1 35.9342 125.814 35.8576C125.461 35.7658 125.179 35.674 124.965 35.5822C124.756 35.4903 124.574 35.3475 124.421 35.1537C124.273 34.9548 124.199 34.6895 124.199 34.358C124.199 34.0673 124.273 33.8097 124.421 33.5852C124.569 33.3608 124.776 33.1873 125.041 33.0649C125.311 32.9425 125.62 32.8813 125.966 32.8813C126.466 32.8813 126.875 33.0063 127.191 33.2562C127.512 33.5062 127.693 33.8377 127.734 34.2508H126.969C126.944 34.0468 126.836 33.8683 126.648 33.7153C126.459 33.5572 126.209 33.4781 125.898 33.4781C125.607 33.4781 125.37 33.5546 125.186 33.7077C125.003 33.8556 124.911 34.0647 124.911 34.335C124.911 34.5288 124.965 34.687 125.071 34.8094C125.184 34.9318 125.319 35.0262 125.477 35.0925C125.641 35.1537 125.867 35.2251 126.158 35.3068C126.51 35.4037 126.793 35.5006 127.007 35.5975C127.221 35.6893 127.406 35.8347 127.558 36.0336C127.711 36.2274 127.788 36.4927 127.788 36.8293C127.788 37.0894 127.719 37.3343 127.581 37.5638C127.443 37.7933 127.24 37.9796 126.969 38.1223C126.699 38.2652 126.38 38.3366 126.012 38.3366ZM129.57 37.319L128.713 39.3772H128.246L128.805 37.319H129.57ZM132.224 35.6128C132.224 35.0925 132.341 34.6258 132.576 34.2126C132.811 33.7943 133.129 33.4679 133.532 33.2333C133.94 32.9986 134.391 32.8813 134.886 32.8813C135.468 32.8813 135.976 33.0216 136.409 33.3021C136.842 33.5827 137.159 33.9805 137.357 34.4957H136.524C136.376 34.1743 136.161 33.927 135.881 33.7535C135.606 33.5801 135.274 33.4934 134.886 33.4934C134.514 33.4934 134.18 33.5801 133.884 33.7535C133.588 33.927 133.356 34.1743 133.187 34.4957C133.019 34.8119 132.935 35.1843 132.935 35.6128C132.935 36.0362 133.019 36.4085 133.187 36.7298C133.356 37.0461 133.588 37.2909 133.884 37.4643C134.18 37.6378 134.514 37.7245 134.886 37.7245C135.274 37.7245 135.606 37.6403 135.881 37.472C136.161 37.2986 136.376 37.0512 136.524 36.7298H137.357C137.159 37.2399 136.842 37.6353 136.409 37.9158C135.976 38.1913 135.468 38.3289 134.886 38.3289C134.391 38.3289 133.94 38.2142 133.532 37.9847C133.129 37.75 132.811 37.4261 132.576 37.0129C132.341 36.5998 132.224 36.1331 132.224 35.6128ZM138.654 38.3289C138.521 38.3289 138.409 38.2831 138.317 38.1913C138.226 38.0994 138.18 37.9872 138.18 37.8546C138.18 37.7219 138.226 37.6098 138.317 37.5179C138.409 37.4261 138.521 37.3802 138.654 37.3802C138.781 37.3802 138.889 37.4261 138.976 37.5179C139.067 37.6098 139.113 37.7219 139.113 37.8546C139.113 37.9872 139.067 38.0994 138.976 38.1913C138.889 38.2831 138.781 38.3289 138.654 38.3289ZM143.229 37.0971H140.903L140.475 38.2831H139.741L141.668 32.9808H142.471L144.392 38.2831H143.658L143.229 37.0971ZM143.031 36.5309L142.066 33.8377L141.102 36.5309H143.031Z" fill="#CCCDCF"/>
</g>
<defs>
<clipPath id="clip0_409_1287">
<rect width="145" height="40" fill="white"/>
</clipPath>
</defs>
</svg>
