<svg width="22" height="22" viewBox="0 0 22 22" fill="none" xmlns="http://www.w3.org/2000/svg">
<rect x="1" y="1.5" width="20" height="19" rx="9.5" stroke="#ECECEC" stroke-width="2"/>
<path d="M11.1895 16.1944C7.27467 16.1944 6.38022 15.0407 6.38022 10.9574C6.38022 6.87407 7.27467 5.72037 11.1895 5.72037C14.4173 5.72037 15.6617 6.61482 15.6617 9.28519V9.51852H13.8599V9.38889C13.8599 7.85926 13.3673 7.34074 11.1895 7.34074C8.62282 7.34074 8.23393 7.75556 8.23393 10.9574C8.23393 14.1463 8.62282 14.5741 11.1895 14.5741C13.4191 14.5741 13.8858 14.0944 13.8858 12.3704V12.2407H15.6747V12.487C15.6747 15.1963 14.6636 16.1944 11.1895 16.1944Z" fill="#E5E6E6"/>
</svg>
