<svg width="125" height="125" viewBox="0 0 125 125" fill="none" xmlns="http://www.w3.org/2000/svg">
<path d="M55.8571 9.67561C55.0161 9.78091 54.2451 9.17135 54.1384 8.31915C54.0302 7.45574 54.6286 6.68609 55.4696 6.58078C56.2993 6.47688 57.0802 7.07383 57.1883 7.93724C57.295 8.78944 56.6869 9.57171 55.8571 9.67561Z" fill="#303030"/>
<path d="M48.5611 14.1518C46.7891 14.6948 45.9084 14.752 45.2416 14.3889C44.7368 14.13 44.3992 13.607 44.0979 12.6237L44.035 12.4184L45.2235 12.0542L45.2765 12.2271C45.4752 12.8754 45.6468 13.1656 45.9433 13.3229C46.3775 13.5444 46.9908 13.4629 48.2117 13.0888C49.4543 12.708 50.0337 12.4004 50.2544 12.0019C50.4001 11.7445 50.3905 11.4047 50.2647 10.9941C50.1057 10.4755 49.9332 10.221 49.7149 10.087C49.3163 9.86637 48.767 9.96378 47.001 10.4104C45.3862 10.8107 44.6135 10.8347 44.0704 10.5283C43.637 10.2711 43.3235 9.788 43.0785 8.98844C42.8501 8.24291 42.8217 7.64882 43.0981 7.16227C43.4578 6.48471 44.2809 6.00793 45.7935 5.54441C47.3927 5.05439 48.3349 4.96658 48.9735 5.31461C49.4675 5.5769 49.7585 6.10233 50.0333 6.99913L50.0731 7.12878L48.9061 7.48636L48.873 7.37831C48.6976 6.80566 48.54 6.52299 48.2643 6.39472C47.8691 6.18489 47.2741 6.24901 46.1288 6.59996C45.0051 6.9443 44.4548 7.23113 44.2524 7.61226C44.125 7.85222 44.128 8.17044 44.2538 8.58102C44.3896 9.02402 44.5264 9.27759 44.7663 9.40498C45.1366 9.61063 45.6568 9.53396 47.2068 9.15356C48.8756 8.73675 49.8196 8.57748 50.4365 8.93214C50.8916 9.18275 51.1784 9.7331 51.4366 10.5759C51.6883 11.397 51.6743 11.9686 51.4303 12.4453C51.0448 13.1544 50.1926 13.6519 48.5611 14.1518Z" fill="#303030"/>
<path d="M36.3588 19.1123L35.809 9.59555L37.3625 8.8365L44.5424 15.1136L43.3342 15.704L41.7649 14.32L37.4193 16.4433L37.5467 18.5318L36.3588 19.1123ZM37.3394 15.2246L40.8525 13.508L37.0522 10.1578L37.0319 10.1677L37.3394 15.2246ZM35.5227 8.85504L36.0942 6.60112L37.1907 6.06531L36.5888 8.33412L35.5227 8.85504Z" fill="#303030"/>
<path d="M28.2564 25.15L22.9166 18.1654L24.4698 16.978L31.5953 20.7909L31.6042 20.784L29.7935 12.908L31.3467 11.7206L36.6864 18.7052L35.7348 19.4327L31.1363 13.4177L31.1273 13.4246L32.9876 21.533L31.9552 22.3223L24.6185 18.4006L24.6095 18.4074L29.208 24.4225L28.2564 25.15Z" fill="#303030"/>
<path d="M21.352 33.1827L14.4726 27.7081L18.5046 22.6414L19.3977 23.3521L16.1468 27.4373L18.1452 29.0276L21.2343 25.1458L22.1274 25.8565L19.0382 29.7383L21.24 31.4905L24.5192 27.3699L25.4123 28.0806L21.352 33.1827Z" fill="#303030"/>
<path d="M17.1706 40.2192L9.5194 35.8883L11.5234 32.3479C12.7537 30.1744 13.7403 29.785 15.3433 30.6923C16.4546 31.3214 16.8007 31.9718 16.5678 32.9567L16.6071 32.979C17.236 32.1662 17.9003 32.1397 19.0214 32.7743L20.8113 33.7874L20.1934 34.8791L18.6985 34.0329C17.4397 33.3204 17.0478 33.4621 16.2462 34.8783L14.7988 37.4353L17.7885 39.1276L17.1706 40.2192ZM13.8056 36.873L15.2529 34.3161C15.9989 32.9983 15.8914 32.431 14.849 31.8409C13.8164 31.2564 13.3183 31.4939 12.461 33.0084L11.1306 35.3589L13.8056 36.873Z" fill="#303030"/>
<path d="M14.2118 47.8563L5.95611 44.8327L7.44069 40.7792C8.18298 38.7524 8.98171 38.2145 10.5628 38.7936C11.6558 39.1939 12.033 39.7412 11.9372 40.693L11.969 40.7046C12.5621 39.7424 13.2616 39.5413 14.5031 39.996C16.2115 40.6217 16.5047 41.5956 15.7158 43.7497L14.2118 47.8563ZM13.5714 46.2859L14.644 43.3572C15.1298 42.0307 15.02 41.5091 13.9589 41.1205C12.9189 40.7396 12.4703 41.0447 12.0311 42.2437L10.9079 45.3104L13.5714 46.2859ZM9.84681 44.9218L10.9505 41.9082C11.3431 40.8364 11.2216 40.3466 10.2878 40.0046C9.33273 39.6549 8.95937 39.9514 8.51244 41.1717L7.45924 44.0474L9.84681 44.9218Z" fill="#303030"/>
<path d="M13.2496 52.774C12.6843 55.8758 11.6147 56.4505 9.58016 56.0797L3.77679 55.0221L4.00168 53.7881L9.57159 54.8031C11.0836 55.0787 11.6962 54.8687 12.1156 52.5674C12.537 50.2549 12.0399 49.8312 10.5279 49.5556L4.958 48.5406L5.18289 47.3065L10.9863 48.3641C13.0208 48.7349 13.8169 49.6611 13.2496 52.774Z" fill="#303030"/>
<path d="M12.436 60.851C12.4039 64.2411 11.3912 64.9661 7.83168 64.9324C4.27212 64.8988 3.27335 64.1547 3.30541 60.7647C3.33276 57.8718 4.17785 56.9418 6.42659 56.9631L6.58479 56.9646L6.57303 58.2076L6.48263 58.2067C5.02491 58.193 4.47833 58.6285 4.45803 60.7756C4.43484 63.2277 4.8831 63.6275 7.84375 63.6555C10.8044 63.6835 11.2601 63.2923 11.2833 60.8401C11.3041 58.6479 10.8108 58.2251 9.16099 58.2095L9.08189 58.2087L9.09375 56.9544L9.25195 56.9559C11.6024 56.9781 12.4649 57.7887 12.436 60.851Z" fill="#303030"/>
<path d="M12.7287 68.0062C12.989 69.8412 12.9082 70.7201 12.4457 71.3221C12.1113 71.7805 11.5421 72.0324 10.5239 72.1768L10.3113 72.207L10.1368 70.9762L10.3158 70.9508C10.9871 70.8556 11.3005 70.7313 11.5021 70.463C11.7886 70.0685 11.8036 69.45 11.6242 68.1857C11.4417 66.899 11.2282 66.2787 10.8689 65.9987C10.6373 65.8147 10.3002 65.7712 9.87499 65.8315C9.33794 65.9076 9.05973 66.0384 8.89332 66.2332C8.61329 66.5925 8.62392 67.1503 8.78991 68.9644C8.93369 70.6218 8.83704 71.3888 8.44979 71.8775C8.12818 72.2655 7.60215 72.4999 6.77418 72.6174C6.00216 72.7269 5.41091 72.6623 4.97336 72.3135C4.36013 71.8526 4.01741 70.9653 3.79523 69.3989C3.56035 67.743 3.62043 66.7985 4.06369 66.222C4.39975 65.7749 4.96411 65.5693 5.89277 65.4375L6.02704 65.4185L6.19843 66.6269L6.08655 66.6428C5.49354 66.7269 5.18978 66.8384 5.02012 67.0908C4.75128 67.4485 4.72191 68.0462 4.89014 69.2322C5.05518 70.3958 5.25277 70.9841 5.59771 71.2434C5.8149 71.4066 6.12969 71.4533 6.55486 71.393C7.0136 71.3279 7.28538 71.2323 7.44861 71.0151C7.70944 70.6813 7.71476 70.1555 7.5805 68.5652C7.42879 66.8519 7.41856 65.8945 7.865 65.3404C8.18344 64.93 8.77176 64.7324 9.64448 64.6087C10.4948 64.488 11.0573 64.5909 11.4901 64.9062C12.1304 65.3974 12.4891 66.3167 12.7287 68.0062Z" fill="#303030"/>
<path d="M15.0527 78.7494L6.61373 81.2157L4.79727 75.0004L5.89281 74.6802L7.35739 79.6915L9.8088 78.9751L8.41713 74.2133L9.51267 73.8931L10.9043 78.6549L13.6052 77.8656L12.128 72.8109L13.2235 72.4907L15.0527 78.7494Z" fill="#303030"/>
<path d="M18.7041 86.8225L10.7806 90.6326L9.20367 87.3533C7.72956 84.2878 8.29766 83.1744 11.3632 81.7003C14.4287 80.2262 15.653 80.4776 17.1271 83.5431L18.7041 86.8225ZM17.1318 86.1866L16.0985 84.0377C15.0504 81.8583 14.4374 81.6264 11.9117 82.841C9.38594 84.0555 9.18425 84.6792 10.2323 86.8586L11.2656 89.0075L17.1318 86.1866Z" fill="#303030"/>
<path d="M19.7384 93.3942C20.2455 94.0733 20.0966 95.0448 19.4085 95.5587C18.7113 96.0794 17.7465 95.9395 17.2393 95.2605C16.739 94.5904 16.872 93.6166 17.5692 93.0959C18.2574 92.582 19.238 92.7241 19.7384 93.3942Z" fill="#303030"/>
<path d="M27.2349 97.5245C28.5826 98.7967 29.0676 99.5342 29.0815 100.293C29.1058 100.86 28.8179 101.412 28.112 102.16L27.9646 102.316L27.0607 101.463L27.1848 101.331C27.6502 100.838 27.8177 100.546 27.808 100.21C27.786 99.723 27.412 99.2302 26.4834 98.3536C25.5383 97.4616 24.9846 97.1098 24.5291 97.1149C24.2333 97.1155 23.9426 97.2917 23.6479 97.604C23.2755 97.9985 23.1396 98.2742 23.131 98.5302C23.1361 98.9858 23.4922 99.4152 24.7532 100.73C25.8992 101.936 26.3019 102.596 26.3039 103.219C26.2945 103.723 26.0294 104.234 25.4554 104.843C24.9202 105.41 24.4177 105.728 23.8581 105.728C23.0913 105.75 22.2701 105.27 21.1196 104.184C19.9034 103.036 19.3614 102.26 19.3484 101.533C19.3323 100.974 19.6453 100.461 20.2891 99.7793L20.3822 99.6807L21.2697 100.518L21.1921 100.601C20.781 101.036 20.6131 101.313 20.6378 101.616C20.6507 102.063 21.0005 102.549 21.8716 103.371C22.7262 104.178 23.2476 104.514 23.6789 104.502C23.9505 104.494 24.2256 104.334 24.5204 104.022C24.8385 103.685 24.9913 103.441 24.9835 103.169C24.9792 102.746 24.6555 102.331 23.5589 101.172C22.3718 99.9271 21.7669 99.1851 21.7703 98.4735C21.7633 97.9541 22.1 97.4328 22.7051 96.7918C23.2947 96.1673 23.7985 95.8969 24.3334 95.8735C25.1404 95.8582 25.994 96.3532 27.2349 97.5245Z" fill="#303030"/>
<path d="M37.5767 105.681L29.5748 110.862L28.1473 109.887L30.0562 100.543L31.1665 101.301L30.7388 103.349L34.7323 106.078L36.485 104.935L37.5767 105.681ZM33.7122 106.75L30.4838 104.544L29.4493 109.503L29.468 109.516L33.7122 106.75ZM29.0726 111.477L26.8307 112.094L25.823 111.405L28.0929 110.807L29.0726 111.477Z" fill="#303030"/>
<path d="M46.8305 109.742L43.3971 117.836L41.5973 117.072L41.3909 108.993L41.3805 108.989L35.4281 114.455L33.6284 113.692L37.0618 105.598L38.1645 106.066L35.2077 113.036L35.2181 113.04L41.348 107.416L42.5444 107.924L42.7606 116.24L42.771 116.244L45.7278 109.274L46.8305 109.742Z" fill="#303030"/>
<path d="M57.2254 111.774L55.8657 120.46L49.4683 119.459L49.6448 118.331L54.8029 119.139L55.1979 116.616L50.2966 115.848L50.4731 114.721L55.3744 115.488L55.8096 112.708L50.6069 111.894L50.7834 110.766L57.2254 111.774Z" fill="#303030"/>
<path d="M65.4083 111.932L65.4241 120.724L61.3559 120.731C58.8584 120.736 58.0323 120.071 58.029 118.229C58.0267 116.952 58.4211 116.329 59.3924 116.045L59.3923 116C58.375 115.855 58.0237 115.29 58.0213 114.002L58.0176 111.945L59.272 111.943L59.2751 113.661C59.2777 115.107 59.5946 115.378 61.2219 115.375L64.1601 115.37L64.1539 111.934L65.4083 111.932ZM64.1622 116.511L61.224 116.516C59.7097 116.519 59.2696 116.893 59.2718 118.091C59.2739 119.277 59.7265 119.593 61.4668 119.59L64.1677 119.585L64.1622 116.511Z" fill="#303030"/>
<path d="M73.5105 110.731L74.9617 119.402L70.704 120.115C68.5752 120.471 67.7129 120.043 67.4349 118.382C67.2428 117.234 67.5322 116.636 68.407 116.248L68.4014 116.215C67.2718 116.175 66.7513 115.666 66.5331 114.362C66.2328 112.568 66.9346 111.832 69.1971 111.453L73.5105 110.731ZM72.4617 112.064L69.3855 112.579C67.9923 112.812 67.5931 113.165 67.7796 114.28C67.9624 115.372 68.4493 115.611 69.7088 115.4L72.9299 114.861L72.4617 112.064ZM73.1164 115.976L69.951 116.506C68.8253 116.694 68.4596 117.042 68.6237 118.023C68.7916 119.026 69.2339 119.204 70.5156 118.989L73.5361 118.484L73.1164 115.976Z" fill="#303030"/>
<path d="M78.2607 109.136C81.2366 108.095 82.2648 108.741 82.9479 110.693L84.8963 116.261L83.7123 116.675L81.8423 111.331C81.3346 109.88 80.8493 109.452 78.6414 110.224C76.4228 111.001 76.3001 111.642 76.8077 113.093L78.6777 118.437L77.4937 118.851L75.5453 113.283C74.8623 111.331 75.274 110.181 78.2607 109.136Z" fill="#303030"/>
<path d="M85.6858 105.853C88.6489 104.206 89.7796 104.728 91.5094 107.839C93.2391 110.95 93.0859 112.186 90.1228 113.834C87.5944 115.24 86.3682 114.965 85.2755 112.999L85.1986 112.861L86.285 112.257L86.329 112.336C87.0373 113.61 87.6861 113.87 89.5627 112.826C91.706 111.635 91.832 111.048 90.3933 108.46C88.9546 105.872 88.3892 105.669 86.246 106.861C84.3299 107.926 84.206 108.564 85.0078 110.006L85.0462 110.075L83.9499 110.685L83.873 110.546C82.7308 108.492 83.0092 107.342 85.6858 105.853Z" fill="#303030"/>
<path d="M91.7608 102.062C93.2274 100.929 94.0314 100.565 94.7833 100.67C95.3471 100.734 95.8474 101.104 96.4761 101.918L96.6074 102.088L95.6237 102.848L95.5131 102.705C95.0986 102.168 94.8356 101.957 94.5028 101.915C94.0183 101.861 93.4732 102.153 92.4626 102.934C91.4342 103.728 91.0005 104.22 90.9346 104.671C90.889 104.963 91.0178 105.278 91.2804 105.618C91.612 106.047 91.8632 106.224 92.1148 106.273C92.5655 106.339 93.0452 106.054 94.5402 105.013C95.9101 104.069 96.6247 103.774 97.2409 103.869C97.7371 103.957 98.2009 104.298 98.7121 104.96C99.1888 105.577 99.4249 106.123 99.3379 106.676C99.2402 107.437 98.6382 108.173 97.3862 109.141C96.0627 110.163 95.2119 110.578 94.4917 110.477C93.9369 110.406 93.4792 110.017 92.9058 109.275L92.8229 109.167L93.7887 108.421L93.8578 108.511C94.224 108.985 94.4711 109.193 94.7743 109.216C95.2181 109.273 95.7523 109.003 96.7002 108.271C97.6303 107.553 98.0441 107.09 98.099 106.662C98.1336 106.393 98.0186 106.096 97.756 105.756C97.4728 105.389 97.2553 105.2 96.9859 105.166C96.5668 105.104 96.1071 105.359 94.7909 106.262C93.3763 107.24 92.5491 107.722 91.8468 107.608C91.3326 107.534 90.8701 107.12 90.3312 106.423C89.8061 105.743 89.6176 105.203 89.6778 104.671C89.7885 103.872 90.4104 103.106 91.7608 102.062Z" fill="#303030"/>
<path d="M99.9527 94.7334L106.267 100.851L101.761 105.502L100.942 104.708L104.575 100.958L102.74 99.1807L99.2882 102.744L98.4685 101.95L101.921 98.3865L99.8996 96.4285L96.2352 100.211L95.4155 99.4165L99.9527 94.7334Z" fill="#303030"/>
<path d="M105.166 87.5695L112.394 92.575L110.322 95.5665C108.386 98.3629 107.137 98.4192 104.341 96.4827C101.544 94.5461 101.158 93.3575 103.094 90.561L105.166 87.5695ZM105.39 89.2506L104.033 91.2108C102.656 93.199 102.757 93.8466 105.061 95.4421C107.365 97.0377 108.007 96.9049 109.384 94.9167L110.741 92.9564L105.39 89.2506Z" fill="#303030"/>
<path d="M110.369 83.423C110.709 82.6465 111.627 82.2959 112.414 82.6401C113.211 82.9889 113.566 83.8968 113.226 84.6733C112.891 85.4394 111.979 85.805 111.181 85.4561C110.395 85.1119 110.034 84.1891 110.369 83.423Z" fill="#303030"/>
<path d="M110.255 74.8646C110.695 73.0642 111.096 72.2782 111.749 71.891C112.23 71.5897 112.852 71.5673 113.851 71.8114L114.06 71.8624L113.764 73.0699L113.589 73.027C112.93 72.866 112.593 72.8651 112.306 73.0393C111.894 73.2991 111.65 73.8677 111.347 75.1082C111.038 76.3706 111.006 77.0259 111.236 77.4193C111.382 77.6762 111.679 77.8418 112.096 77.9438C112.623 78.0725 112.93 78.0545 113.157 77.9354C113.55 77.7058 113.748 77.184 114.268 75.4381C114.75 73.8458 115.124 73.1696 115.665 72.8598C116.108 72.619 116.684 72.5967 117.496 72.7953C118.253 72.9804 118.778 73.2599 119.055 73.7463C119.453 74.402 119.442 75.3532 119.066 76.89C118.669 78.5147 118.263 79.3693 117.637 79.7399C117.159 80.0302 116.558 80.0114 115.647 79.7888L115.516 79.7566L115.805 78.571L115.915 78.5978C116.497 78.74 116.82 78.7493 117.072 78.578C117.454 78.3457 117.703 77.8017 117.988 76.6381C118.267 75.4964 118.302 74.8768 118.078 74.508C117.937 74.2757 117.662 74.1155 117.245 74.0135C116.795 73.9035 116.507 73.8914 116.275 74.0324C115.908 74.2454 115.708 74.7316 115.242 76.2579C114.747 77.9051 114.4 78.7977 113.78 79.1463C113.332 79.4091 112.712 79.374 111.856 79.1647C111.022 78.9608 110.538 78.6564 110.253 78.2029C109.841 77.5089 109.85 76.5222 110.255 74.8646Z" fill="#303030"/>
<path d="M112.235 61.8425L120.693 66.2388L120.55 67.9619L111.484 70.9199L111.595 69.5797L113.586 68.9393L113.985 64.1191L112.126 63.1602L112.235 61.8425ZM115.073 64.674L114.751 68.5708L119.574 67.0193L119.576 66.9968L115.073 64.674ZM121.476 66.3716L123.12 68.0157L123.019 69.232L121.378 67.5541L121.476 66.3716Z" fill="#303030"/>
<path d="M111.192 51.7914L119.926 50.7766L120.151 52.7186L113.23 56.8904L113.231 56.9016L120.925 59.3751L121.15 61.317L112.417 62.3319L112.279 61.142L119.8 60.268L119.799 60.2568L111.88 57.7071L111.73 56.4162L118.853 52.1186L118.851 52.1074L111.331 52.9813L111.192 51.7914Z" fill="#303030"/>
<path d="M107.822 41.75L116.046 38.6397L118.337 44.6962L117.269 45.1L115.422 40.2167L113.033 41.1202L114.788 45.7604L113.721 46.1642L111.966 41.524L109.334 42.5195L111.197 47.4451L110.129 47.8488L107.822 41.75Z" fill="#303030"/>
<path d="M103.916 34.5575L111.552 30.199L113.569 33.7322C114.807 35.9011 114.637 36.9481 113.037 37.8613C111.928 38.4943 111.192 38.4589 110.465 37.7549L110.425 37.7774C110.802 38.7335 110.485 39.3178 109.366 39.9565L107.58 40.9761L106.958 39.8867L108.45 39.0352C109.706 38.3181 109.785 37.9088 108.978 36.4956L107.522 33.9438L104.538 35.6469L103.916 34.5575ZM108.513 33.378L109.969 35.9297C110.72 37.2449 111.262 37.4427 112.303 36.8489C113.333 36.2607 113.384 35.7112 112.521 34.1998L111.182 31.8542L108.513 33.378Z" fill="#303030"/>
<path d="M98.8682 28.1075L105.69 22.5608L108.413 25.9102C109.775 27.5848 109.828 28.5463 108.522 29.6086C107.619 30.3429 106.956 30.387 106.187 29.8178L106.161 29.8391C106.684 30.841 106.499 31.5449 105.473 32.3791C104.061 33.5269 103.075 33.2806 101.627 31.5007L98.8682 28.1075ZM100.545 28.3607L102.513 30.7806C103.404 31.8766 103.908 32.0491 104.785 31.3362C105.645 30.6375 105.612 30.0959 104.806 29.1051L102.746 26.5712L100.545 28.3607ZM103.623 25.8582L105.647 28.3483C106.368 29.2339 106.851 29.3801 107.622 28.7527C108.411 28.111 108.347 27.6385 107.528 26.6302L105.596 24.2541L103.623 25.8582Z" fill="#303030"/>
<path d="M95.1339 24.7661C92.7579 22.6936 92.8114 21.4805 94.1708 19.9221L98.0484 15.4767L98.9937 16.3013L95.272 20.5678C94.2618 21.726 94.1288 22.3598 95.8916 23.8975C97.663 25.4426 98.2813 25.2322 99.2916 24.0741L103.013 19.8075L103.959 20.6321L100.081 25.0775C98.7215 26.6359 97.5184 26.8461 95.1339 24.7661Z" fill="#303030"/>
<path d="M88.6101 19.9336C85.7136 18.1718 85.6088 16.9307 87.4587 13.8895C89.3087 10.8482 90.4589 10.3707 93.3554 12.1325C95.827 13.636 96.1937 14.8379 95.025 16.7592L94.9428 16.8944L93.8808 16.2484L93.9278 16.1711C94.6854 14.9256 94.5907 14.2332 92.7563 13.1173C90.6612 11.8429 90.0884 12.0236 88.5497 14.5531C87.011 17.0827 87.114 17.6744 89.2091 18.9488C91.0821 20.0882 91.6978 19.8806 92.5552 18.471L92.5963 18.4035L93.668 19.0554L93.5858 19.1905C92.3642 21.1987 91.2265 21.5252 88.6101 19.9336Z" fill="#303030"/>
<path d="M82.3129 16.5253C80.6031 15.8102 79.8893 15.2911 79.6086 14.5858C79.3859 14.0639 79.4606 13.4459 79.8574 12.4972L79.9402 12.2991L81.087 12.7788L81.0173 12.9456C80.7556 13.5711 80.7022 13.904 80.8295 14.2145C81.0219 14.6624 81.5457 14.9917 82.7237 15.4844C83.9227 15.9859 84.5649 16.1198 84.9893 15.9543C85.2659 15.8495 85.4758 15.582 85.6415 15.1858C85.8508 14.6854 85.8807 14.3795 85.7985 14.1368C85.633 13.7124 85.1483 13.4362 83.5047 12.6508C82.007 11.9264 81.3974 11.4509 81.1757 10.8682C81.0068 10.3934 81.0745 9.82145 81.3972 9.04996C81.698 8.3306 82.0559 7.85558 82.5795 7.65808C83.2892 7.36695 84.227 7.52642 85.6866 8.13688C87.2295 8.78222 88.0103 9.31701 88.2789 9.9928C88.4912 10.5103 88.3791 11.1004 88.0172 11.9657L87.9649 12.0908L86.8389 11.6199L86.8825 11.5157C87.1136 10.9631 87.1732 10.645 87.0431 10.3702C86.8733 9.95615 86.3748 9.62515 85.2697 9.16295C84.1854 8.70946 83.5788 8.57826 83.1796 8.74202C82.9282 8.84512 82.7271 9.09173 82.5614 9.4879C82.3826 9.91535 82.3258 10.1978 82.4289 10.4492C82.5822 10.844 83.0312 11.1176 84.4664 11.8158C86.0162 12.562 86.844 13.0429 87.0917 13.71C87.2814 14.1936 87.1502 14.8002 86.8101 15.6134C86.4787 16.4057 86.1026 16.8364 85.6103 17.0469C84.8606 17.3458 83.8872 17.1837 82.3129 16.5253Z" fill="#303030"/>
<path d="M71.8928 13.0256L74.0909 4.51287L80.3605 6.13178L80.0752 7.2369L75.02 5.9316L74.3815 8.40445L79.185 9.64477L78.8996 10.7499L74.0962 9.50958L73.3927 12.2341L78.4915 13.5507L78.2062 14.6558L71.8928 13.0256Z" fill="#303030"/>
<path d="M63.0872 12.0329L63.867 3.2756L67.4914 3.59832C70.8795 3.89999 71.5455 4.95768 71.2438 8.34578C70.9422 11.7339 70.0998 12.6573 66.7117 12.3556L63.0872 12.0329ZM64.4379 11.0073L66.8129 11.2187C69.2218 11.4332 69.7346 11.0251 69.9832 8.23353C70.2317 5.44201 69.799 4.94966 67.3902 4.73519L65.0152 4.52372L64.4379 11.0073Z" fill="#303030"/>
</svg>
