<svg width="64" height="64" viewBox="0 0 64 64" fill="none" xmlns="http://www.w3.org/2000/svg">
<path d="M10.667 16.0007C13.0374 18.6673 20.6225 24.0007 32.0003 24.0007C43.3781 24.0007 50.9633 18.6673 53.3337 16.0007M26.667 24.0007L24.0019 58.6468C24.0018 58.6479 24.0024 58.6489 24.0034 58.6494L24.0037 58.6495C24.0052 58.6502 24.0061 58.6522 24.0065 58.6507C24.026 58.5859 28.8117 42.6673 32.0003 42.6673C35.1889 42.6673 39.9746 58.5858 39.9941 58.6507C39.9946 58.6522 39.9955 58.6502 39.997 58.6495L39.9972 58.6494C39.9982 58.6489 39.9988 58.6479 39.9987 58.6468L37.3337 24.0007M37.3337 10.6673C37.3337 13.6128 34.9458 16.0007 32.0003 16.0007C29.0548 16.0007 26.667 13.6128 26.667 10.6673C26.667 7.7218 29.0548 5.33398 32.0003 5.33398C34.9458 5.33398 37.3337 7.7218 37.3337 10.6673Z" stroke="#E5E6E6" stroke-width="2" stroke-linecap="square"/>
</svg>
