<svg width="56" height="46" viewBox="0 0 56 46" fill="none" xmlns="http://www.w3.org/2000/svg">
<path d="M26.2765 15.9422L26.9836 15.2351L26.6907 14.9422H26.2765V15.9422ZM35.0576 24.7232L34.3505 25.4303L34.6434 25.7232H35.0576L35.0576 24.7232ZM36.9432 24.7232L36.9432 25.7232H37.3574L37.6503 25.4303L36.9432 24.7232ZM52.7075 10.3731L53.4146 9.66602L52.0004 8.2518L51.2933 8.95891L52.7075 10.3731ZM11.2933 27.6256L10.5862 28.3327L12.0004 29.7469L12.7075 29.0398L11.2933 27.6256ZM24.3909 15.9422V14.9422H23.9767L23.6838 15.2351L24.3909 15.9422ZM41.3337 5.99935H40.3337V7.99935H41.3337V5.99935ZM53.3337 6.99935L54.0408 6.29224L53.7479 5.99935H53.3337V6.99935ZM54.6671 8.33268H55.6671V7.91847L55.3742 7.62558L54.6671 8.33268ZM53.6671 20.3327V21.3327H55.6671V20.3327H53.6671ZM54.6671 45.3327H55.6671V43.3327H54.6671V45.3327ZM1.33301 44.3327L0.333008 44.3327L0.332991 45.3327H1.33301V44.3327ZM2.33372 1.66603L2.33374 0.666032L0.33374 0.665999L0.333723 1.666L2.33372 1.66603ZM25.5694 16.6493L34.3505 25.4303L35.7647 24.0161L26.9836 15.2351L25.5694 16.6493ZM37.6503 25.4303L52.7075 10.3731L51.2933 8.95891L36.2361 24.0161L37.6503 25.4303ZM12.7075 29.0398L25.098 16.6493L23.6838 15.2351L11.2933 27.6256L12.7075 29.0398ZM35.0576 25.7232L36.9432 25.7232L36.9432 23.7232L35.0576 23.7232L35.0576 25.7232ZM26.2765 14.9422L24.3909 14.9422V16.9422L26.2765 16.9422V14.9422ZM41.3337 7.99935H53.3337V5.99935H41.3337V7.99935ZM53.6671 8.33268V20.3327H55.6671V8.33268H53.6671ZM52.6266 7.70646L53.9599 9.03979L55.3742 7.62558L54.0408 6.29224L52.6266 7.70646ZM54.6671 43.3327H1.33301V45.3327H54.6671V43.3327ZM2.33301 44.3327L2.33372 1.66603L0.333723 1.666L0.333008 44.3327L2.33301 44.3327Z" fill="#E5E6E6"/>
</svg>
